<mxfile host="65bd71144e">
    <diagram id="hczpCgFUyV0QT8pDASjq" name="構成図">
        <mxGraphModel dx="759" dy="1580" grid="1" gridSize="10" guides="1" tooltips="1" connect="1" arrows="1" fold="1" page="1" pageScale="1" pageWidth="827" pageHeight="1169" background="#ffffff" math="0" shadow="0">
            <root>
                <mxCell id="nPq5Ch1uNJQHko2jcUwG-0"/>
                <mxCell id="nPq5Ch1uNJQHko2jcUwG-1" parent="nPq5Ch1uNJQHko2jcUwG-0"/>
                <mxCell id="ae6mzC8Myc8joR70XlBo-25" value="AWS Cloud" style="points=[[0,0],[0.25,0],[0.5,0],[0.75,0],[1,0],[1,0.25],[1,0.5],[1,0.75],[1,1],[0.75,1],[0.5,1],[0.25,1],[0,1],[0,0.75],[0,0.5],[0,0.25]];outlineConnect=0;gradientColor=none;html=1;whiteSpace=wrap;fontSize=12;fontStyle=0;container=1;pointerEvents=0;collapsible=0;recursiveResize=0;shape=mxgraph.aws4.group;grIcon=mxgraph.aws4.group_aws_cloud_alt;strokeColor=#232F3E;fillColor=none;verticalAlign=top;align=left;spacingLeft=30;fontColor=#232F3E;dashed=0;" vertex="1" parent="nPq5Ch1uNJQHko2jcUwG-1">
                    <mxGeometry x="9" y="150" width="741" height="340" as="geometry"/>
                </mxCell>
                <mxCell id="ae6mzC8Myc8joR70XlBo-2" value="" style="sketch=0;points=[[0,0,0],[0.25,0,0],[0.5,0,0],[0.75,0,0],[1,0,0],[0,1,0],[0.25,1,0],[0.5,1,0],[0.75,1,0],[1,1,0],[0,0.25,0],[0,0.5,0],[0,0.75,0],[1,0.25,0],[1,0.5,0],[1,0.75,0]];points=[[0,0,0],[0.25,0,0],[0.5,0,0],[0.75,0,0],[1,0,0],[0,1,0],[0.25,1,0],[0.5,1,0],[0.75,1,0],[1,1,0],[0,0.25,0],[0,0.5,0],[0,0.75,0],[1,0.25,0],[1,0.5,0],[1,0.75,0]];outlineConnect=0;fontColor=#232F3E;gradientColor=#F34482;gradientDirection=north;fillColor=#BC1356;strokeColor=#ffffff;dashed=0;verticalLabelPosition=bottom;verticalAlign=top;align=center;html=1;fontSize=12;fontStyle=0;aspect=fixed;shape=mxgraph.aws4.resourceIcon;resIcon=mxgraph.aws4.config;" vertex="1" parent="nPq5Ch1uNJQHko2jcUwG-1">
                    <mxGeometry x="182" y="348" width="72" height="72" as="geometry"/>
                </mxCell>
                <mxCell id="ae6mzC8Myc8joR70XlBo-10" value="" style="group" vertex="1" connectable="0" parent="nPq5Ch1uNJQHko2jcUwG-1">
                    <mxGeometry x="26" y="280" width="96" height="98" as="geometry"/>
                </mxCell>
                <mxCell id="ae6mzC8Myc8joR70XlBo-0" value="" style="sketch=0;points=[[0,0,0],[0.25,0,0],[0.5,0,0],[0.75,0,0],[1,0,0],[0,1,0],[0.25,1,0],[0.5,1,0],[0.75,1,0],[1,1,0],[0,0.25,0],[0,0.5,0],[0,0.75,0],[1,0.25,0],[1,0.5,0],[1,0.75,0]];points=[[0,0,0],[0.25,0,0],[0.5,0,0],[0.75,0,0],[1,0,0],[0,1,0],[0.25,1,0],[0.5,1,0],[0.75,1,0],[1,1,0],[0,0.25,0],[0,0.5,0],[0,0.75,0],[1,0.25,0],[1,0.5,0],[1,0.75,0]];outlineConnect=0;fontColor=#232F3E;gradientColor=#F34482;gradientDirection=north;fillColor=#BC1356;strokeColor=#ffffff;dashed=0;verticalLabelPosition=bottom;verticalAlign=top;align=center;html=1;fontSize=12;fontStyle=0;aspect=fixed;shape=mxgraph.aws4.resourceIcon;resIcon=mxgraph.aws4.cloudtrail;" vertex="1" parent="ae6mzC8Myc8joR70XlBo-10">
                    <mxGeometry x="14" width="68" height="68" as="geometry"/>
                </mxCell>
                <mxCell id="ae6mzC8Myc8joR70XlBo-9" value="AWS CloudTrail" style="text;html=1;strokeColor=none;fillColor=none;align=center;verticalAlign=middle;whiteSpace=wrap;rounded=0;" vertex="1" parent="ae6mzC8Myc8joR70XlBo-10">
                    <mxGeometry y="68" width="96" height="30" as="geometry"/>
                </mxCell>
                <mxCell id="ae6mzC8Myc8joR70XlBo-13" value="AWS Config" style="text;html=1;strokeColor=none;fillColor=none;align=center;verticalAlign=middle;whiteSpace=wrap;rounded=0;" vertex="1" parent="nPq5Ch1uNJQHko2jcUwG-1">
                    <mxGeometry x="170" y="420" width="96" height="30" as="geometry"/>
                </mxCell>
                <mxCell id="ae6mzC8Myc8joR70XlBo-15" value="" style="group" vertex="1" connectable="0" parent="nPq5Ch1uNJQHko2jcUwG-1">
                    <mxGeometry x="158" y="212" width="120" height="98" as="geometry"/>
                </mxCell>
                <mxCell id="ae6mzC8Myc8joR70XlBo-3" value="" style="sketch=0;points=[[0,0,0],[0.25,0,0],[0.5,0,0],[0.75,0,0],[1,0,0],[0,1,0],[0.25,1,0],[0.5,1,0],[0.75,1,0],[1,1,0],[0,0.25,0],[0,0.5,0],[0,0.75,0],[1,0.25,0],[1,0.5,0],[1,0.75,0]];outlineConnect=0;fontColor=#232F3E;gradientColor=#F54749;gradientDirection=north;fillColor=#C7131F;strokeColor=#ffffff;dashed=0;verticalLabelPosition=bottom;verticalAlign=top;align=center;html=1;fontSize=12;fontStyle=0;aspect=fixed;shape=mxgraph.aws4.resourceIcon;resIcon=mxgraph.aws4.guardduty;" vertex="1" parent="ae6mzC8Myc8joR70XlBo-15">
                    <mxGeometry x="24" width="68" height="68" as="geometry"/>
                </mxCell>
                <mxCell id="ae6mzC8Myc8joR70XlBo-14" value="Amazon GuardDuty" style="text;html=1;strokeColor=none;fillColor=none;align=center;verticalAlign=middle;whiteSpace=wrap;rounded=0;" vertex="1" parent="ae6mzC8Myc8joR70XlBo-15">
                    <mxGeometry y="68" width="120" height="30" as="geometry"/>
                </mxCell>
                <mxCell id="ae6mzC8Myc8joR70XlBo-17" value="" style="group" vertex="1" connectable="0" parent="nPq5Ch1uNJQHko2jcUwG-1">
                    <mxGeometry x="317.5" y="280" width="107" height="100" as="geometry"/>
                </mxCell>
                <mxCell id="ae6mzC8Myc8joR70XlBo-4" value="" style="sketch=0;points=[[0,0,0],[0.25,0,0],[0.5,0,0],[0.75,0,0],[1,0,0],[0,1,0],[0.25,1,0],[0.5,1,0],[0.75,1,0],[1,1,0],[0,0.25,0],[0,0.5,0],[0,0.75,0],[1,0.25,0],[1,0.5,0],[1,0.75,0]];outlineConnect=0;fontColor=#232F3E;gradientColor=#F54749;gradientDirection=north;fillColor=#C7131F;strokeColor=#ffffff;dashed=0;verticalLabelPosition=bottom;verticalAlign=top;align=center;html=1;fontSize=12;fontStyle=0;aspect=fixed;shape=mxgraph.aws4.resourceIcon;resIcon=mxgraph.aws4.security_hub;" vertex="1" parent="ae6mzC8Myc8joR70XlBo-17">
                    <mxGeometry x="18.5" width="70" height="70" as="geometry"/>
                </mxCell>
                <mxCell id="ae6mzC8Myc8joR70XlBo-16" value="AWS Security Hub" style="text;html=1;strokeColor=none;fillColor=none;align=center;verticalAlign=middle;whiteSpace=wrap;rounded=0;" vertex="1" parent="ae6mzC8Myc8joR70XlBo-17">
                    <mxGeometry y="70" width="107" height="30" as="geometry"/>
                </mxCell>
                <mxCell id="ae6mzC8Myc8joR70XlBo-19" value="" style="group" vertex="1" connectable="0" parent="nPq5Ch1uNJQHko2jcUwG-1">
                    <mxGeometry x="620" y="280" width="107" height="100" as="geometry"/>
                </mxCell>
                <mxCell id="ae6mzC8Myc8joR70XlBo-1" value="" style="sketch=0;points=[[0,0,0],[0.25,0,0],[0.5,0,0],[0.75,0,0],[1,0,0],[0,1,0],[0.25,1,0],[0.5,1,0],[0.75,1,0],[1,1,0],[0,0.25,0],[0,0.5,0],[0,0.75,0],[1,0.25,0],[1,0.5,0],[1,0.75,0]];points=[[0,0,0],[0.25,0,0],[0.5,0,0],[0.75,0,0],[1,0,0],[0,1,0],[0.25,1,0],[0.5,1,0],[0.75,1,0],[1,1,0],[0,0.25,0],[0,0.5,0],[0,0.75,0],[1,0.25,0],[1,0.5,0],[1,0.75,0]];outlineConnect=0;fontColor=#232F3E;gradientColor=#F34482;gradientDirection=north;fillColor=#BC1356;strokeColor=#ffffff;dashed=0;verticalLabelPosition=bottom;verticalAlign=top;align=center;html=1;fontSize=12;fontStyle=0;aspect=fixed;shape=mxgraph.aws4.resourceIcon;resIcon=mxgraph.aws4.chatbot;" vertex="1" parent="ae6mzC8Myc8joR70XlBo-19">
                    <mxGeometry x="18.5" width="70" height="70" as="geometry"/>
                </mxCell>
                <mxCell id="ae6mzC8Myc8joR70XlBo-18" value="AWS Chatbot" style="text;html=1;strokeColor=none;fillColor=none;align=center;verticalAlign=middle;whiteSpace=wrap;rounded=0;" vertex="1" parent="ae6mzC8Myc8joR70XlBo-19">
                    <mxGeometry y="70" width="107" height="30" as="geometry"/>
                </mxCell>
                <mxCell id="ae6mzC8Myc8joR70XlBo-20" value="" style="sketch=0;points=[[0,0,0],[0.25,0,0],[0.5,0,0],[0.75,0,0],[1,0,0],[0,1,0],[0.25,1,0],[0.5,1,0],[0.75,1,0],[1,1,0],[0,0.25,0],[0,0.5,0],[0,0.75,0],[1,0.25,0],[1,0.5,0],[1,0.75,0]];outlineConnect=0;fontColor=#232F3E;gradientColor=#FF4F8B;gradientDirection=north;fillColor=#BC1356;strokeColor=#ffffff;dashed=0;verticalLabelPosition=bottom;verticalAlign=top;align=center;html=1;fontSize=12;fontStyle=0;aspect=fixed;shape=mxgraph.aws4.resourceIcon;resIcon=mxgraph.aws4.sns;" vertex="1" parent="nPq5Ch1uNJQHko2jcUwG-1">
                    <mxGeometry x="480" y="280" width="70" height="70" as="geometry"/>
                </mxCell>
                <mxCell id="ae6mzC8Myc8joR70XlBo-21" value="Amazon SNS" style="text;html=1;strokeColor=none;fillColor=none;align=center;verticalAlign=middle;whiteSpace=wrap;rounded=0;" vertex="1" parent="nPq5Ch1uNJQHko2jcUwG-1">
                    <mxGeometry x="455" y="350" width="120" height="30" as="geometry"/>
                </mxCell>
                <mxCell id="ae6mzC8Myc8joR70XlBo-22" value="" style="sketch=0;outlineConnect=0;fontColor=#232F3E;gradientColor=none;fillColor=#232F3D;strokeColor=none;dashed=0;verticalLabelPosition=bottom;verticalAlign=top;align=center;html=1;fontSize=12;fontStyle=0;aspect=fixed;pointerEvents=1;shape=mxgraph.aws4.user;" vertex="1" parent="nPq5Ch1uNJQHko2jcUwG-1">
                    <mxGeometry x="800" y="280" width="70" height="70" as="geometry"/>
                </mxCell>
                <mxCell id="ae6mzC8Myc8joR70XlBo-23" value="システム管理者" style="text;html=1;strokeColor=none;fillColor=none;align=center;verticalAlign=middle;whiteSpace=wrap;rounded=0;" vertex="1" parent="nPq5Ch1uNJQHko2jcUwG-1">
                    <mxGeometry x="780" y="348" width="107" height="30" as="geometry"/>
                </mxCell>
                <mxCell id="ae6mzC8Myc8joR70XlBo-26" value="" style="edgeStyle=orthogonalEdgeStyle;html=1;endArrow=block;elbow=vertical;startArrow=none;endFill=1;strokeColor=#545B64;rounded=0;entryX=0;entryY=0.5;entryDx=0;entryDy=0;entryPerimeter=0;" edge="1" parent="nPq5Ch1uNJQHko2jcUwG-1" source="ae6mzC8Myc8joR70XlBo-0" target="ae6mzC8Myc8joR70XlBo-3">
                    <mxGeometry width="100" relative="1" as="geometry">
                        <mxPoint x="200" y="560" as="sourcePoint"/>
                        <mxPoint x="300" y="560" as="targetPoint"/>
                    </mxGeometry>
                </mxCell>
                <mxCell id="ae6mzC8Myc8joR70XlBo-28" value="" style="edgeStyle=orthogonalEdgeStyle;html=1;endArrow=block;elbow=vertical;startArrow=none;endFill=1;strokeColor=#545B64;rounded=0;exitX=1;exitY=0.5;exitDx=0;exitDy=0;exitPerimeter=0;entryX=0;entryY=0.5;entryDx=0;entryDy=0;entryPerimeter=0;" edge="1" parent="nPq5Ch1uNJQHko2jcUwG-1" source="ae6mzC8Myc8joR70XlBo-0" target="ae6mzC8Myc8joR70XlBo-2">
                    <mxGeometry width="100" relative="1" as="geometry">
                        <mxPoint x="200" y="560" as="sourcePoint"/>
                        <mxPoint x="300" y="560" as="targetPoint"/>
                    </mxGeometry>
                </mxCell>
                <mxCell id="ae6mzC8Myc8joR70XlBo-29" value="" style="edgeStyle=orthogonalEdgeStyle;html=1;endArrow=block;elbow=vertical;startArrow=none;endFill=1;strokeColor=#545B64;rounded=0;exitX=1;exitY=0.5;exitDx=0;exitDy=0;exitPerimeter=0;entryX=0;entryY=0.5;entryDx=0;entryDy=0;entryPerimeter=0;" edge="1" parent="nPq5Ch1uNJQHko2jcUwG-1" source="ae6mzC8Myc8joR70XlBo-3" target="ae6mzC8Myc8joR70XlBo-4">
                    <mxGeometry width="100" relative="1" as="geometry">
                        <mxPoint x="355" y="530" as="sourcePoint"/>
                        <mxPoint x="455" y="530" as="targetPoint"/>
                    </mxGeometry>
                </mxCell>
                <mxCell id="ae6mzC8Myc8joR70XlBo-30" value="" style="edgeStyle=orthogonalEdgeStyle;html=1;endArrow=block;elbow=vertical;startArrow=none;endFill=1;strokeColor=#545B64;rounded=0;exitX=1;exitY=0.5;exitDx=0;exitDy=0;exitPerimeter=0;" edge="1" parent="nPq5Ch1uNJQHko2jcUwG-1" source="ae6mzC8Myc8joR70XlBo-2" target="ae6mzC8Myc8joR70XlBo-4">
                    <mxGeometry width="100" relative="1" as="geometry">
                        <mxPoint x="280" y="560" as="sourcePoint"/>
                        <mxPoint x="380" y="560" as="targetPoint"/>
                    </mxGeometry>
                </mxCell>
                <mxCell id="ae6mzC8Myc8joR70XlBo-31" value="" style="edgeStyle=orthogonalEdgeStyle;html=1;endArrow=block;elbow=vertical;startArrow=none;endFill=1;strokeColor=#545B64;rounded=0;exitX=1;exitY=0.5;exitDx=0;exitDy=0;exitPerimeter=0;" edge="1" parent="nPq5Ch1uNJQHko2jcUwG-1" source="ae6mzC8Myc8joR70XlBo-4">
                    <mxGeometry width="100" relative="1" as="geometry">
                        <mxPoint x="500" y="560" as="sourcePoint"/>
                        <mxPoint x="480" y="315" as="targetPoint"/>
                    </mxGeometry>
                </mxCell>
                <mxCell id="ae6mzC8Myc8joR70XlBo-32" value="" style="edgeStyle=orthogonalEdgeStyle;html=1;endArrow=block;elbow=vertical;startArrow=none;endFill=1;strokeColor=#545B64;rounded=0;exitX=1;exitY=0.5;exitDx=0;exitDy=0;exitPerimeter=0;entryX=0;entryY=0.5;entryDx=0;entryDy=0;entryPerimeter=0;" edge="1" parent="nPq5Ch1uNJQHko2jcUwG-1" source="ae6mzC8Myc8joR70XlBo-20" target="ae6mzC8Myc8joR70XlBo-1">
                    <mxGeometry width="100" relative="1" as="geometry">
                        <mxPoint x="590" y="530" as="sourcePoint"/>
                        <mxPoint x="690" y="530" as="targetPoint"/>
                    </mxGeometry>
                </mxCell>
                <mxCell id="ae6mzC8Myc8joR70XlBo-33" value="" style="edgeStyle=orthogonalEdgeStyle;html=1;endArrow=block;elbow=vertical;startArrow=none;endFill=1;strokeColor=#545B64;rounded=0;" edge="1" parent="nPq5Ch1uNJQHko2jcUwG-1" source="ae6mzC8Myc8joR70XlBo-1">
                    <mxGeometry width="100" relative="1" as="geometry">
                        <mxPoint x="750" y="450" as="sourcePoint"/>
                        <mxPoint x="800" y="315" as="targetPoint"/>
                    </mxGeometry>
                </mxCell>
            </root>
        </mxGraphModel>
    </diagram>
</mxfile>